<svg width="40" height="41" viewBox="0 0 40 41" fill="none" xmlns="http://www.w3.org/2000/svg">
<path fill-rule="evenodd" clip-rule="evenodd" d="M36.6666 8.83337V32.1667C36.6666 34.9281 34.4281 37.1667 31.6666 37.1667H8.33331C5.57189 37.1667 3.33331 34.9281 3.33331 32.1667V8.83337C3.33331 6.07195 5.57189 3.83337 8.33331 3.83337H31.6666C34.4281 3.83337 36.6666 6.07195 36.6666 8.83337ZM18.3333 10.5H28.3333C29.2538 10.5 30 11.2462 30 12.1667C30 13.0872 29.2538 13.8334 28.3333 13.8334H18.3333C17.4128 13.8334 16.6666 13.0872 16.6666 12.1667C16.6666 11.2462 17.4128 10.5 18.3333 10.5ZM13.3333 12.1667C13.3307 11.9489 13.2854 11.7337 13.2 11.5334C13.1156 11.3314 12.9972 11.1454 12.85 10.9834C12.688 10.8362 12.502 10.7178 12.3 10.6334C11.6793 10.3724 10.9626 10.5105 10.4833 10.9834C10.3361 11.1454 10.2177 11.3314 10.1333 11.5334C10.0479 11.7337 10.0026 11.9489 9.99998 12.1667C9.99742 12.6097 10.1713 13.0355 10.4833 13.35C10.8027 13.6546 11.2254 13.8272 11.6666 13.8334C11.8853 13.839 12.1022 13.7933 12.3 13.7C12.502 13.6156 12.688 13.4973 12.85 13.35C13.1545 13.0307 13.3272 12.608 13.3333 12.1667ZM12.3 18.9667C11.6793 18.7057 10.9626 18.8438 10.4833 19.3167C10.329 19.4732 10.2097 19.6606 10.1333 19.8667C10.0479 20.0671 10.0026 20.2822 9.99998 20.5C9.99742 20.943 10.1713 21.3688 10.4833 21.6834C10.8027 21.9879 11.2254 22.1606 11.6666 22.1667C11.8844 22.1641 12.0996 22.1188 12.3 22.0334C12.502 21.949 12.688 21.8306 12.85 21.6834L13.05 21.4334C13.1131 21.3405 13.1635 21.2396 13.2 21.1334C13.2596 21.0409 13.3046 20.9397 13.3333 20.8334C13.3415 20.7224 13.3415 20.611 13.3333 20.5C13.3272 20.0588 13.1545 19.6361 12.85 19.3167C12.688 19.1695 12.502 19.0511 12.3 18.9667ZM18.3333 18.8334H28.3333C29.2538 18.8334 30 19.5796 30 20.5C30 21.4205 29.2538 22.1667 28.3333 22.1667H18.3333C17.4128 22.1667 16.6666 21.4205 16.6666 20.5C16.6666 19.5796 17.4128 18.8334 18.3333 18.8334ZM12.85 27.65C12.688 27.5028 12.502 27.3844 12.3 27.3C11.6793 27.039 10.9626 27.1771 10.4833 27.65C10.3316 27.8085 10.2126 27.9955 10.1333 28.2C9.95502 28.6034 9.95502 29.0633 10.1333 29.4667C10.2126 29.6713 10.3316 29.8582 10.4833 30.0167C10.8027 30.3213 11.2254 30.4939 11.6666 30.5C11.8844 30.4974 12.0996 30.4521 12.3 30.3667C12.502 30.2823 12.688 30.1639 12.85 30.0167C13.0017 29.8582 13.1207 29.6713 13.2 29.4667C13.3783 29.0633 13.3783 28.6034 13.2 28.2C13.1207 27.9955 13.0017 27.8085 12.85 27.65ZM18.3333 27.1667H28.3333C29.2538 27.1667 30 27.9129 30 28.8334C30 29.7538 29.2538 30.5 28.3333 30.5H18.3333C17.4128 30.5 16.6666 29.7538 16.6666 28.8334C16.6666 27.9129 17.4128 27.1667 18.3333 27.1667ZM31.6666 7.16671C32.5871 7.16671 33.3333 7.9129 33.3333 8.83337V32.1667C33.3333 33.0872 32.5871 33.8334 31.6666 33.8334H8.33331C7.41284 33.8334 6.66665 33.0872 6.66665 32.1667V8.83337C6.66665 7.9129 7.41284 7.16671 8.33331 7.16671H31.6666Z" fill="#231F20"/>
</svg>
